<svg xmlns="http://www.w3.org/2000/svg" viewBox="0 0 128 128">
  <defs>
    <linearGradient id="voice" x1="0%" x2="100%" y1="0%" y2="100%">
      <stop offset="0%" stop-color="#ff7849" />
      <stop offset="100%" stop-color="#ffca62" />
    </linearGradient>
  </defs>
  <rect width="128" height="128" rx="28" fill="#12131a" />
  <path
    d="M64 24c-10 0-18 8-18 18v21c0 10 8 18 18 18s18-8 18-18V42c0-10-8-18-18-18Z"
    fill="url(#voice)"
  />
  <path
    d="M38 59a4 4 0 0 1 4 4c0 12 10 22 22 22s22-10 22-22a4 4 0 1 1 8 0c0 14-10 27-26 30v11h11a4 4 0 1 1 0 8H49a4 4 0 1 1 0-8h11V93C44 90 34 77 34 63a4 4 0 0 1 4-4Z"
    fill="#f7efe2"
  />
  <path
    d="M96 36a4 4 0 0 1 5.66 0c4.18 4.18 6.34 9.18 6.34 14s-2.16 9.82-6.34 14a4 4 0 1 1-5.66-5.66c2.7-2.7 4-5.54 4-8.34s-1.3-5.64-4-8.34A4 4 0 0 1 96 36Zm-69.66 0a4 4 0 0 1 5.66 5.66c-2.7 2.7-4 5.54-4 8.34s1.3 5.64 4 8.34a4 4 0 1 1-5.66 5.66C22.16 59.82 20 54.82 20 50s2.16-9.82 6.34-14Z"
    fill="#83d3b4"
  />
</svg>
